<svg width="48" height="48" viewBox="0 0 48 48" fill="none" xmlns="http://www.w3.org/2000/svg">
<g id="cross" clip-path="url(#clip0_469_668)">
<path id="Vector" d="M22.9162 28.3026C18.7414 32.0401 14.6588 35.6604 10.6171 39.3257C8.27562 41.449 6.01799 43.6644 3.68198 45.7935C3.0598 46.3751 2.34485 46.8479 1.56661 47.1922C1.18285 47.3533 0.354138 47.1922 0.165149 46.8971C-0.0849082 46.5053 -0.0109764 45.81 0.124659 45.2987C0.223331 44.9259 0.625094 44.6172 0.928183 44.3179C6.69213 38.6427 12.4587 32.9711 18.2278 27.3031C18.8751 26.6674 19.5411 26.0511 20.2848 25.3452C17.7637 22.551 15.2386 19.8549 12.828 17.0585C8.98076 12.5934 5.21069 8.06197 1.40873 3.55826C1.27052 3.39458 1.15164 3.21543 1.01215 3.05175C0.346827 2.26526 -0.122227 1.41757 0.635336 0.463531C1.20262 -0.250787 2.55877 -0.144098 3.50307 0.827658C5.85483 3.24706 8.14574 5.72508 10.4175 8.22214C14.5656 12.779 18.6813 17.3655 22.8147 21.9359C22.9916 22.1022 23.1797 22.256 23.3778 22.3963C26.5739 19.3416 29.7346 16.2968 32.9217 13.2781C36.6179 9.77897 40.3271 6.29366 44.0492 2.82206C45.4454 1.51715 46.5649 1.28194 47.4218 2.0433C48.3099 2.83205 48.2271 4.1498 46.811 5.56265C42.9824 9.38297 39.0612 13.1105 35.1439 16.8422C32.1596 19.686 29.1277 22.4808 25.9515 25.4511C28.5325 28.1205 31.001 30.7813 33.589 33.3189C36.0747 35.7563 38.6994 38.0524 41.2341 40.4396C42.225 41.3379 43.1528 42.3037 44.0112 43.33C44.7036 44.1912 44.8058 45.2603 43.9547 46.1096C43.1162 46.9473 42.1452 46.6513 41.3362 46.0172C39.7888 44.8674 38.3055 43.6333 36.893 42.3205C32.569 38.0858 28.3214 33.7735 24.046 29.4892C23.7079 29.1509 23.3848 28.7959 22.9162 28.3026Z" fill="black"/>
</g>
<defs>
<clipPath id="clip0_469_668">
<rect width="48" height="47.2558" fill="white"/>
</clipPath>
</defs>
</svg>
