<svg width="20" height="24" viewBox="0 0 20 24" fill="none" xmlns="http://www.w3.org/2000/svg">
<g id="delete" clip-path="url(#clip0_466_305)">
<path id="Vector" d="M1.81004 5.42557C1.44244 5.36643 1.13841 5.33143 0.840917 5.26654C0.308308 5.15044 0.0359361 4.89217 0.0294144 4.52736C0.0226752 4.14429 0.305904 3.81664 0.857317 3.74653C1.64482 3.64641 2.44213 3.61838 3.23615 3.57848C3.6655 3.55674 4.09677 3.57468 4.59384 3.57468C4.52177 3.24226 4.47017 2.98332 4.40909 2.72677C4.28037 2.21283 4.34879 1.6693 4.60084 1.20329C4.93779 0.556498 5.45127 0.162455 6.18399 0.137997C7.52217 0.093355 8.86088 0.0682115 10.2002 0.0625589C11.0867 0.0583194 11.9736 0.0996174 12.8602 0.120706C12.9868 0.12375 13.1139 0.123207 13.2401 0.132556C14.1444 0.1993 14.7231 0.663573 14.9311 1.54973C15.0252 1.95095 15.0373 2.37198 15.0794 2.78483C15.1012 2.99789 15.1075 3.21246 15.1229 3.45879C15.2688 3.4808 15.4159 3.49423 15.5634 3.49901C16.5402 3.4714 17.5167 3.43074 18.4937 3.40944C18.7453 3.3986 18.9973 3.42393 19.2417 3.48467C19.438 3.53059 19.6143 3.63845 19.7446 3.79232C19.8749 3.94618 19.9522 4.13788 19.965 4.33907C19.9988 4.5465 19.9677 4.75929 19.8762 4.94842C19.7846 5.13757 19.6368 5.29385 19.4531 5.39601C19.3015 5.48841 19.1352 5.55667 18.9466 5.65037C18.9466 6.17715 18.9287 6.69959 18.9496 7.22039C19.0736 10.3105 19.2441 13.4002 19.1292 16.4939C19.0877 17.6127 19.0119 18.735 18.859 19.8429C18.7741 20.4583 18.5262 21.0581 18.3005 21.6452C18.1938 21.9267 18.0252 22.1807 17.8072 22.3883C17.5892 22.596 17.3273 22.752 17.041 22.845C16.5119 23.0264 15.9688 23.1637 15.4172 23.2552C14.9143 23.3197 14.4084 23.3554 13.9016 23.3624C11.9315 23.4602 9.96203 23.5763 7.99084 23.6401C7.15984 23.6755 6.32734 23.6395 5.50247 23.5327C3.3804 23.2341 2.22701 22.0647 1.89114 19.9408C1.79163 19.3525 1.73629 18.7575 1.72561 18.1609C1.70314 14.7429 1.69501 11.3248 1.70125 7.90675C1.70234 7.09538 1.77048 6.28379 1.81004 5.42557ZM3.43497 5.55764C3.53279 7.24484 3.60526 15.5052 3.8007 17.9924C3.8583 18.7258 4.02723 19.4523 4.17179 20.1767C4.31592 20.8987 4.80386 21.3187 5.50332 21.4317C6.28592 21.5581 7.08192 21.68 7.87105 21.6741C9.8429 21.6594 11.815 21.5915 13.7852 21.5024C14.5396 21.4682 15.2901 21.3265 16.0399 21.2165C16.1765 21.1993 16.3043 21.1394 16.4049 21.0454C16.5055 20.9512 16.5738 20.8277 16.6001 20.6925C16.7039 20.273 16.8381 19.8555 16.8877 19.4288C17.1724 16.9783 17.1138 14.5187 17.0386 12.0599C16.9793 10.1264 16.9104 8.19317 16.8451 6.25987C16.8391 6.08595 16.8272 5.91137 16.8191 5.75929C12.2062 5.692 8.0867 5.62559 3.43528 5.55764H3.43497ZM6.33711 3.53575C8.61091 3.61804 10.8396 3.61445 13.0827 3.50977V2.0064C10.8148 1.93031 8.58896 1.84857 6.33711 2.06913V3.53575Z" fill="black"/>
<path id="Vector_2" d="M13.6871 13.0685C13.6634 11.901 13.6078 10.7176 13.554 9.57308L13.553 9.55134C13.5336 9.13638 13.5147 8.72144 13.496 8.30647C13.4877 8.16147 13.4605 8.01817 13.415 7.88023C13.3153 7.56499 13.0905 7.39878 12.7994 7.42628C12.6231 7.44085 12.3194 7.53161 12.2653 7.97447C12.2567 8.05415 12.2523 8.13424 12.2523 8.21439C12.2349 9.65363 12.1035 14.4118 12.1022 14.4603C12.0776 15.6042 12.0522 16.7865 12.0348 17.9595C12.0258 18.2825 12.0549 18.6055 12.1218 18.9216C12.154 19.089 12.2444 19.2397 12.3768 19.3471C12.5093 19.4545 12.6753 19.5117 12.8458 19.5086C12.8658 19.5086 12.886 19.5078 12.9063 19.5064C13.0747 19.5018 13.2359 19.4373 13.3612 19.3248C13.4864 19.2122 13.5676 19.0588 13.5902 18.8918C13.6499 18.5444 13.6826 18.1929 13.6881 17.8403L13.6939 17.0314C13.7035 15.7332 13.7139 14.391 13.6871 13.0685Z" fill="black"/>
<path id="Vector_3" d="M7.86971 7.50245H7.86918C7.76072 7.50203 7.6538 7.52797 7.55758 7.57806C7.46137 7.62814 7.37876 7.70089 7.31689 7.78997C7.2121 7.97747 7.15297 8.18702 7.1443 8.40165C7.12582 8.69243 7.10644 8.98309 7.08665 9.28083C7.01872 10.3049 6.94831 11.364 6.91809 12.4092C6.87461 13.8956 6.85995 15.406 6.84527 16.8668C6.84086 17.3139 6.83612 17.761 6.83106 18.2081C6.8308 18.3912 6.85638 18.5732 6.90711 18.7491C7.0257 19.1694 7.31104 19.4305 7.65169 19.4305H7.66257C8.01942 19.4243 8.30459 19.1425 8.38883 18.7125C8.43036 18.4849 8.44793 18.2536 8.44117 18.0224C8.42225 16.8354 8.39906 15.6487 8.3771 14.5212L8.3572 13.5018L8.37997 12.291C8.40475 10.9795 8.42809 9.73978 8.44689 8.49392C8.45805 8.28503 8.42711 8.07601 8.35593 7.8793C8.31226 7.78124 8.24502 7.69552 8.16019 7.62976C8.07535 7.56399 7.97556 7.52027 7.86971 7.50245Z" fill="black"/>
</g>
<defs>
<clipPath id="clip0_466_305">
<rect width="20" height="23.6975" fill="white"/>
</clipPath>
</defs>
</svg>
