<svg width="40" height="41" viewBox="0 0 40 41" fill="none" xmlns="http://www.w3.org/2000/svg">
<g id="heart" clip-path="url(#clip0_468_399)">
<path id="Vector" d="M18.7654 39.0711L18.9692 39.1397C19.7186 39.3904 20.4265 39.6269 20.893 40.6631C20.9048 40.6893 20.9214 40.7124 20.9417 40.7311C20.9621 40.7496 20.9857 40.7632 21.011 40.7709C21.027 40.7756 21.0434 40.778 21.0599 40.778C21.0961 40.778 21.1314 40.7662 21.1617 40.7443C21.5057 40.4942 21.8297 40.2677 22.1374 40.0525C22.7819 39.6015 23.3386 39.2124 23.871 38.7589C25.7805 37.1679 27.5228 35.3417 29.0652 33.3142C31.0923 30.6042 33.1883 27.8018 35.1614 24.8682C36.3963 23.0318 37.4492 20.9817 38.339 19.2049C39.229 17.4072 39.7588 15.4152 39.8921 13.3665C40.1335 9.99983 39.4163 6.9652 37.7605 4.3471C35.9175 1.43324 33.4665 0.0141419 30.4808 0.123551C27.1126 0.249198 24.1505 1.68651 21.6763 4.39575C21.5563 4.53336 21.4452 4.68028 21.3439 4.83542C21.1516 5.11554 20.969 5.38145 20.6943 5.4868C17.8083 2.34865 15.6017 1.12107 12.3008 0.806445C8.91319 0.483293 6.17066 1.69954 4.14903 4.41954C3.14574 5.76401 2.26637 7.21796 1.52429 8.75934C-0.0575319 12.0658 -0.387146 15.5827 0.546126 19.2131C1.37845 22.4533 2.76628 25.4823 4.63265 28.1318C8.3641 33.446 13.1192 37.1269 18.7654 39.0711ZM4.79174 9.38553C5.22523 8.4736 5.70815 7.59206 6.23775 6.74573C7.49685 4.69416 9.27139 3.65873 11.5218 3.65873C11.8005 3.65873 12.0866 3.67461 12.3799 3.70642C15.3858 4.03261 17.797 5.51095 19.5466 8.10023C19.7568 8.4112 19.9857 8.69908 20.1876 8.95281C20.2697 9.05633 20.347 9.1536 20.4152 9.24271C20.4436 9.27986 20.4828 9.30458 20.5259 9.31268C21.3374 9.46898 21.6654 8.99925 21.9088 8.54822C23.3139 5.94656 25.5008 4.39358 28.7916 3.66121C29.5708 3.51106 30.3657 3.4888 31.1508 3.5952C32.3974 3.72653 33.4666 4.41045 34.3294 5.62735C35.3125 7.02319 35.8952 8.71785 36.001 10.4896C36.175 12.5374 35.8381 14.5992 35.0277 16.4466C34.417 17.8784 33.7219 19.2635 32.947 20.5926C31.5081 22.9592 29.9714 25.312 28.4856 27.5872L27.9692 28.3789C26.8626 30.075 25.7183 31.7848 24.6119 33.4381C24.2126 34.0346 23.8137 34.6314 23.415 35.2286C23.243 35.4864 23.0639 35.7389 22.8745 36.0064C22.8119 36.0945 22.7485 36.1843 22.6839 36.2758C22.1532 36.0322 21.6365 35.7941 21.1297 35.5615C19.9337 35.0122 18.7934 34.4883 17.6557 33.9567C14.5068 32.509 11.6546 30.3614 9.27228 27.6447C6.82974 24.839 5.13685 21.8375 4.09721 18.4683C3.14921 15.3951 3.37628 12.424 4.79174 9.38553Z" fill="black"/>
</g>
<defs>
<clipPath id="clip0_468_399">
<rect width="40" height="40.8" fill="white"/>
</clipPath>
</defs>
</svg>
