<svg width="40" height="44" viewBox="0 0 40 44" fill="none" xmlns="http://www.w3.org/2000/svg">
<g id="home-1" clip-path="url(#clip0_468_396)">
<path id="Vector" d="M37.3834 14.1973C36.7666 13.4248 36.1119 12.6914 35.4223 12.0009C35.1861 11.7554 34.9502 11.5102 34.7176 11.2618C34.0768 10.5773 33.4334 9.89572 32.7874 9.21696C31.7623 8.13525 30.7023 7.01684 29.676 5.89855C28.3695 4.4757 26.6103 2.64798 24.5763 1.13061C23.1937 0.098513 21.7407 -0.152976 20.2574 0.379189C19.5244 0.641921 18.754 0.940495 18.1037 1.4359C16.1863 2.89623 14.5445 4.23321 13.0845 5.52279C11.3081 7.09213 9.52112 8.71417 7.79322 10.2828C6.42225 11.5273 5.00435 12.8143 3.60096 14.0671C2.16548 15.3482 1.27499 16.7704 0.879184 18.4146C0.585429 19.5858 0.417937 20.7923 0.380309 22.0083C0.35531 23.253 0.386763 24.5176 0.417247 25.7404C0.44273 26.7708 0.469343 27.8364 0.461763 28.8825C0.459827 29.1642 0.458808 29.4463 0.458701 29.7293C0.455637 31.2806 0.452571 32.8847 0.197893 34.3989C-0.285978 37.2731 0.697888 39.667 3.12064 41.515C4.88531 42.8602 6.94677 43.1327 8.94015 43.3961C11.7169 43.755 14.5102 43.9294 17.3053 43.9182C18.7469 43.9182 20.2498 43.8781 21.834 43.7987L24.576 43.6797C26.8824 43.5796 29.3302 43.4734 31.7771 43.3657C33.2824 43.3152 34.7734 43.0208 36.2039 42.4917C37.5942 41.9677 38.6071 40.9636 39.1305 39.5881C39.6395 38.2523 39.9018 37.0965 39.9319 36.0543C40.0786 30.6606 39.9144 25.2618 39.4402 19.8918C39.2445 17.6347 38.5524 15.7192 37.3834 14.1973ZM14.5508 40.1188C14.5842 39.7204 14.6153 39.3438 14.624 38.9681C14.6612 37.268 14.6957 35.5678 14.7274 33.8671C14.7588 32.2554 14.7914 30.6439 14.8252 29.0326C14.8485 27.9507 14.8835 27.1243 14.939 26.3527C15.0231 25.1785 15.3864 24.705 16.3787 24.4731C17.4715 24.1962 18.5827 24.0211 19.7013 23.9498C20.596 23.9135 21.5132 23.9561 22.3995 23.9983C22.9469 24.024 23.5124 24.051 24.0705 24.0588C24.5748 24.066 24.824 24.3123 24.9031 24.8846C24.9676 25.3523 25.045 25.8262 25.1197 26.2845C25.3198 27.357 25.4476 28.445 25.5016 29.5392C25.5661 32.0548 25.5537 34.5282 25.5407 37.1467C25.5357 38.1485 25.5323 39.16 25.5302 40.1811C21.8563 40.4782 18.2498 40.5901 14.5177 40.5273C14.5284 40.3866 14.5398 40.2517 14.5508 40.1188ZM28.3384 29.9448C28.2031 28.1323 27.8427 26.3167 27.4942 24.5609L27.384 24.0041C27.065 22.3855 26.1026 21.4227 24.601 21.2199C20.9529 20.7273 18.1707 20.8087 15.5795 21.4852C13.3319 22.0721 12.1547 23.5836 11.9808 26.1061C11.8737 27.6601 11.8861 29.2466 11.8982 30.7808C11.9016 31.2072 11.9048 31.6333 11.9058 32.0588C11.9093 33.6647 11.9269 35.2967 11.9439 36.8753C11.9539 37.8092 11.963 38.7434 11.9713 39.6775C11.9726 39.8473 11.9587 40.023 11.9424 40.2267C11.9381 40.281 11.9335 40.3386 11.929 40.3982C10.0871 40.3024 8.53725 40.1526 7.01064 39.7592C6.2758 39.5699 5.43225 39.3317 4.72031 38.8974C3.42612 38.1085 2.82177 37.0234 2.87257 35.5795C2.91467 34.3857 2.92677 33.1074 2.90951 31.6711C2.87725 28.9668 2.82886 26.2175 2.78225 23.5592L2.76015 22.2933C2.73306 20.7599 3.00015 19.4788 3.57644 18.3775C3.87225 17.8119 4.19693 17.2252 4.62386 16.8096C6.80499 14.6869 8.79177 12.8123 10.6972 11.0777C12.7674 9.19457 15.1826 7.01153 17.651 4.95023C18.5192 4.22505 19.5058 3.67461 20.7215 3.07092C21.0563 2.89882 21.4198 2.80812 21.7882 2.80462C22.3786 2.80462 22.9695 3.05102 23.5737 3.54571C25.2731 4.93777 26.7871 6.61479 28.2511 8.23645C28.64 8.66722 29.0289 9.09822 29.4218 9.52464C29.7907 9.92504 30.1589 10.326 30.5268 10.7275C31.7994 12.1145 33.1152 13.5489 34.4403 14.9234C35.6947 16.1874 36.4892 17.9268 36.6716 19.808C36.8879 21.9299 37.0732 23.8458 37.1507 25.8026C37.2577 28.5122 37.3157 31.4866 37.3281 34.896C37.314 35.8381 37.2008 36.7749 36.9908 37.687C36.9181 38.1136 36.7294 38.5042 36.4507 38.8053C36.1719 39.1066 35.8169 39.3032 35.4345 39.3686C35.2052 39.4184 34.976 39.4727 34.7468 39.527C34.1508 39.6835 33.5465 39.797 32.9376 39.8671C31.9261 39.9576 30.9152 39.9938 29.8447 40.0331C29.436 40.0481 29.0203 40.0632 28.5953 40.0815C28.5871 39.8383 28.5784 39.6025 28.57 39.3728C28.5486 38.7787 28.5279 38.2177 28.5169 37.66C28.5008 36.8573 28.4961 36.0394 28.4916 35.2485C28.4805 33.5074 28.4702 31.7073 28.3384 29.9448Z" fill="white"/>
</g>
<defs>
<clipPath id="clip0_468_396">
<rect width="40" height="44" fill="white"/>
</clipPath>
</defs>
</svg>
