<svg width="50" height="50" viewBox="0 0 50 50" fill="none" xmlns="http://www.w3.org/2000/svg">
<g id="home-1">
<path id="Vector" d="M46.7292 15.8327C45.9583 14.9711 45.1399 14.1533 44.2778 13.3833C43.9827 13.1095 43.6877 12.836 43.397 12.559C42.596 11.7957 41.7917 11.0356 40.9843 10.2786C39.7028 9.07232 38.3778 7.82508 37.095 6.57798C35.4619 4.99123 33.2629 2.95298 30.7204 1.26082C28.9921 0.109837 27.1758 -0.17062 25.3218 0.422844C24.4055 0.71584 23.4426 1.04881 22.6296 1.60128C20.2329 3.22982 18.1806 4.72081 16.3556 6.15894C14.1351 7.90904 11.9014 9.71792 9.74152 11.4672C8.02781 12.8551 6.25543 14.2903 4.5012 15.6875C2.70684 17.1161 1.59374 18.7021 1.09898 20.5358C0.731786 21.8418 0.522421 23.1873 0.475387 24.5434C0.444137 25.9315 0.483453 27.3417 0.521558 28.7054C0.553413 29.8545 0.586679 31.0429 0.577203 32.2094C0.574784 32.5236 0.57351 32.8382 0.573377 33.1538C0.569546 34.8837 0.565713 36.6726 0.247367 38.3613C-0.357472 41.5665 0.872361 44.2362 3.9008 46.2971C6.10664 47.7972 8.68346 48.1011 11.1752 48.3949C14.6462 48.7951 18.1378 48.9896 21.6317 48.977C23.4337 48.977 25.3123 48.9324 27.2926 48.8438L30.72 48.7111C33.603 48.5994 36.6627 48.4811 39.7214 48.361C41.603 48.3046 43.4667 47.9763 45.2548 47.3862C46.9928 46.8019 48.2589 45.6822 48.9131 44.1481C49.5494 42.6585 49.8772 41.3696 49.9149 40.2073C50.0982 34.1923 49.893 28.1717 49.3002 22.1831C49.0557 19.6661 48.1905 17.5299 46.7292 15.8327ZM18.1885 44.74C18.2302 44.2957 18.2691 43.8757 18.28 43.4567C18.3265 41.5608 18.3696 39.6647 18.4093 37.7682C18.4485 35.9709 18.4892 34.1737 18.5314 32.3768C18.5607 31.1703 18.6044 30.2487 18.6738 29.3883C18.7788 28.0788 19.2331 27.5507 20.4734 27.2921C21.8393 26.9833 23.2284 26.788 24.6266 26.7085C25.745 26.6681 26.8915 26.7156 27.9994 26.7626C28.6837 26.7913 29.3905 26.8214 30.0881 26.8301C30.7186 26.8381 31.0301 27.1128 31.1288 27.751C31.2095 28.2726 31.3063 28.8011 31.3996 29.3121C31.6498 30.5082 31.8095 31.7215 31.877 32.9418C31.9577 35.7472 31.9421 38.5055 31.9258 41.4256C31.9196 42.5428 31.9153 43.6708 31.9127 44.8095C27.3204 45.1408 22.8123 45.2656 18.1472 45.1955C18.1605 45.0386 18.1748 44.8882 18.1885 44.74ZM35.423 33.3941C35.2538 31.3728 34.8034 29.3481 34.3678 27.39L34.23 26.7691C33.8313 24.964 32.6282 23.8904 30.7512 23.6642C26.1911 23.1148 22.7133 23.2057 19.4744 23.9601C16.6649 24.6145 15.1933 26.3002 14.976 29.1132C14.8421 30.8462 14.8576 32.6155 14.8728 34.3264C14.877 34.8019 14.881 35.2771 14.8822 35.7516C14.8867 37.5425 14.9087 39.3625 14.9298 41.1229C14.9423 42.1644 14.9538 43.2062 14.9641 44.2479C14.9657 44.4373 14.9484 44.6332 14.928 44.8603C14.9226 44.9209 14.9169 44.9851 14.9113 45.0516C12.6089 44.9447 10.6716 44.7778 8.7633 44.339C7.84475 44.1279 6.79031 43.8622 5.90039 43.378C4.28265 42.4982 3.52721 41.288 3.59072 39.6779C3.64334 38.3466 3.65846 36.921 3.63688 35.3193C3.59656 32.3035 3.53608 29.2374 3.47781 26.2729L3.45019 24.8613C3.41632 23.1511 3.75019 21.7225 4.47055 20.4944C4.84031 19.8636 5.24616 19.2093 5.77983 18.7459C8.50624 16.3787 10.9897 14.2882 13.3716 12.3537C15.9593 10.2537 18.9782 7.81916 22.0637 5.52042C23.149 4.7117 24.3823 4.09786 25.9018 3.42464C26.3204 3.23271 26.7748 3.13156 27.2353 3.12766C27.9732 3.12766 28.7119 3.40245 29.4671 3.95411C31.5913 5.50653 33.4839 7.37672 35.3139 9.18518C35.8 9.66556 36.2861 10.1462 36.7772 10.6218C37.2383 11.0683 37.6986 11.5154 38.1585 11.9632C39.7492 13.5099 41.394 15.1096 43.0504 16.6424C44.6184 18.052 45.6115 19.9918 45.8395 22.0896C46.1099 24.456 46.3415 26.5926 46.4383 28.7748C46.5722 31.7965 46.6446 35.1135 46.6601 38.9156C46.6426 39.9662 46.501 41.011 46.2385 42.0281C46.1476 42.5038 45.9117 42.9394 45.5633 43.2752C45.2149 43.6112 44.7712 43.8305 44.2932 43.9034C44.0065 43.9589 43.72 44.0195 43.4335 44.0801C42.6885 44.2546 41.9331 44.3812 41.172 44.4593C39.9077 44.5603 38.644 44.6007 37.3059 44.6445C36.795 44.6612 36.2754 44.678 35.7442 44.6984C35.7339 44.4272 35.723 44.1643 35.7125 43.9081C35.6857 43.2455 35.6599 42.62 35.6462 41.998C35.626 41.1029 35.6202 40.1908 35.6145 39.3088C35.6006 37.367 35.5877 35.3597 35.423 33.3941Z" fill="black"/>
</g>
</svg>
