<svg width="30" height="6" viewBox="0 0 30 6" fill="none" xmlns="http://www.w3.org/2000/svg">
<g clip-path="url(#clip0_499_117)">
<path d="M14.4517 5.39024C14.7763 5.38973 15.0976 5.32449 15.3968 5.1983C15.6959 5.07211 15.967 4.8875 16.1942 4.65527C16.411 4.43649 16.5813 4.17595 16.6948 3.88941C16.8083 3.60288 16.8627 3.2963 16.8546 2.98815C16.8188 1.75422 15.6602 0.572247 14.424 0.508556C14.1742 0.504406 13.9262 0.550817 13.6947 0.644994C13.4632 0.73917 13.2532 0.879206 13.0771 1.05666C12.8009 1.32365 12.5801 1.64268 12.4275 1.99543C12.2748 2.34818 12.1933 2.72772 12.1876 3.11213C12.1784 3.41005 12.2289 3.70681 12.3358 3.98497C12.4427 4.26315 12.604 4.51711 12.8103 4.732C13.0255 4.94524 13.281 5.11327 13.5619 5.22631C13.8428 5.33932 14.1434 5.39508 14.4461 5.39024H14.4517Z" fill="black"/>
<path d="M25.7287 3.97514C26.1458 4.33328 26.68 4.52498 27.2292 4.5136C27.4247 4.51314 27.6194 4.49262 27.8105 4.45238C28.2039 4.38149 28.5756 4.2203 28.8964 3.98147C29.2173 3.74262 29.4785 3.4326 29.6598 3.07573C29.7996 2.78305 29.8588 2.45835 29.8315 2.13506C29.8041 1.81176 29.6911 1.5016 29.5041 1.23665C28.957 0.371446 27.7389 -0.056032 26.7305 0.263176C25.7164 0.584462 25.0119 1.68988 25.0556 2.89131C25.0568 2.92508 25.067 2.95797 25.0847 2.98671C25.1194 3.04228 25.1555 3.11526 25.1962 3.19634C25.3236 3.48701 25.5041 3.75117 25.7287 3.97514Z" fill="black"/>
<path d="M1.96604 5.31619C2.0484 5.32653 2.13132 5.33171 2.21432 5.33169C2.69555 5.32765 3.16117 5.16022 3.53508 4.85677C3.78085 4.66047 3.98543 4.41737 4.13694 4.14149C4.28847 3.86562 4.38398 3.5624 4.41794 3.24938C4.54549 2.05098 3.74507 0.902477 2.67055 0.740889C2.39074 0.701996 2.106 0.720472 1.83355 0.795195C1.5611 0.869919 1.30665 0.999339 1.08565 1.17558C0.813592 1.38851 0.586913 1.65387 0.418921 1.95601C0.250926 2.25813 0.14501 2.59095 0.107526 2.93474C0.0691507 3.21398 0.0871547 3.49809 0.160407 3.77026C0.23366 4.04241 0.360681 4.29707 0.533989 4.51916C0.707296 4.74124 0.923322 4.92619 1.16931 5.06311C1.41529 5.20002 1.68624 5.28607 1.96604 5.31619Z" fill="black"/>
</g>
<defs>
<clipPath id="clip0_499_117">
<rect width="30" height="5.48077" fill="white"/>
</clipPath>
</defs>
</svg>
