<svg width="50" height="35" viewBox="0 0 50 35" fill="none" xmlns="http://www.w3.org/2000/svg">
<path d="M13.1546 31.5902C13.7767 30.9985 14.1185 30.6992 14.4314 30.3721C24.462 19.8855 35.4471 10.4445 46.4972 1.07522C46.9147 0.721362 47.3425 0.269946 47.8368 0.143449C48.4325 -0.00922882 49.4044 -0.109556 49.6707 0.214265C50.0288 0.650253 50.0921 1.59801 49.874 2.17097C49.6143 2.85251 48.9817 3.43621 48.4077 3.94661C44.9828 6.9919 41.462 9.93248 38.0971 13.0412C31.0636 19.5413 24.0748 26.0898 17.1309 32.6865C14.0882 35.5711 12.9172 35.688 10.1174 32.6057C8.27441 30.576 2.71231 23.7353 1.00892 21.5801C0.768369 21.2451 0.554098 20.8919 0.36804 20.5238C-0.0175293 19.8417 -0.267332 19.0907 0.496094 18.5618C1.34682 17.9732 1.95081 18.5875 2.4548 19.2271C2.96513 19.8748 3.40027 20.5863 3.94668 21.2001C5.6429 23.1055 11.3226 29.5814 13.1546 31.5902Z" fill="black"/>
</svg>
