<svg width="40" height="41" viewBox="0 0 40 41" fill="none" xmlns="http://www.w3.org/2000/svg">
<g id="user" clip-path="url(#clip0_468_401)">
<path id="Vector" d="M24.7756 40.5523C21.0651 40.5523 17.3544 40.532 13.6441 40.5587C10.6611 40.5802 7.67934 40.677 4.69663 40.7001C3.85748 40.7001 3.01948 40.6295 2.18968 40.4896C0.402226 40.202 -0.308957 39.0161 0.286297 37.1029C0.693343 35.8214 1.22528 34.594 1.87242 33.443C4.61429 28.5136 8.60375 25.3126 13.3849 23.2504C15.9806 22.1076 18.7393 21.4996 21.5281 21.4556C25.6976 21.415 29.5359 22.6003 32.8137 25.681C35.0513 27.7553 36.8801 30.3272 38.1842 33.2337C38.5473 34.0461 38.9562 34.8395 39.2471 35.6836C39.5262 36.463 39.7213 37.2769 39.8284 38.1079C39.9717 39.3529 39.3523 40.1784 38.2427 40.335C37.4684 40.4528 36.6884 40.5183 35.9069 40.5312C32.1966 40.5502 28.4859 40.5401 24.7756 40.5401V40.5523ZM36.9656 37.5135C36.98 37.3811 36.9788 37.2471 36.962 37.115C35.7801 33.6774 34.1471 30.5703 31.624 28.1365C29.6776 26.259 27.4942 24.9078 24.9006 24.5414C21.912 24.1194 18.9506 24.2078 16.0295 25.1297C10.5031 26.8736 6.09375 30.3067 3.07426 35.8413C2.7307 36.4708 2.45798 37.1486 2.14205 37.8244C2.23807 37.8832 2.33826 37.9331 2.44156 37.9737C3.47546 38.2282 4.50648 38.0785 5.54919 38.0132C7.71614 37.8771 9.88904 37.8187 12.0597 37.8062C19.1613 37.7652 26.263 37.7682 33.3647 37.7302C34.5468 37.7232 35.7269 37.5911 36.9661 37.5135H36.9656Z" fill="white"/>
<path id="Vector_2" d="M20.7262 0.132972C23.585 0.0549779 25.9735 1.58332 27.7868 4.36094C28.2143 5.01583 28.7301 5.62385 29.0423 6.34212C29.7399 7.94755 30.3179 9.5968 29.947 11.4706C29.5989 13.2301 29.145 14.9244 28.1335 16.3666C26.3346 18.9285 24.0412 20.5124 21.1102 20.9061C18.4719 21.2608 15.9633 20.823 13.6211 19.4326C11.2087 18.0006 9.8362 15.6834 9.33789 12.7062C8.58789 8.22425 10.6813 4.2046 13.9844 2.06743C15.9832 0.773788 18.1416 0.121776 20.7262 0.132972ZM26.9902 9.23875C27.1212 8.10887 26.7175 7.20653 26.0919 6.38426C25.8479 6.06337 25.6272 5.71911 25.3731 5.40884C24.4535 4.2858 23.4048 3.39732 22.0099 3.1622C20.0543 2.79971 18.0467 3.09448 16.2408 4.00931C13.9835 5.17201 12.2996 6.94463 11.9116 9.8921C11.4591 13.3305 13.0433 16.4076 15.8608 17.4234C17.549 18.0144 19.3318 18.1881 21.0858 17.9324C23.4836 17.6249 26.3062 14.8642 26.6873 12.0306C26.8119 11.1038 26.8906 10.169 26.9902 9.23782V9.23875Z" fill="white"/>
</g>
<defs>
<clipPath id="clip0_468_401">
<rect width="40" height="40.8" fill="white"/>
</clipPath>
</defs>
</svg>
