<svg width="50" height="46" viewBox="0 0 50 46" fill="none" xmlns="http://www.w3.org/2000/svg">
<g id="user" clip-path="url(#clip0_31_494)">
<rect width="50" height="45.4248" fill="white"/>
<path id="Vector" d="M30.9695 45.149C26.3313 45.149 21.693 45.1263 17.0551 45.1561C13.3263 45.18 9.59918 45.2878 5.87079 45.3135C4.82185 45.3135 3.77434 45.2349 2.7371 45.0792C0.502783 44.7589 -0.386196 43.4387 0.357872 41.3085C0.866679 39.8818 1.5316 38.5152 2.34053 37.2338C5.76786 31.7457 10.7547 28.1818 16.7312 25.8859C19.9757 24.6135 23.4241 23.9366 26.9101 23.8876C32.122 23.8424 36.9199 25.162 41.0171 28.5919C43.8142 30.9014 46.1002 33.7649 47.7303 37.0008C48.1841 37.9053 48.6953 38.7886 49.0589 39.7284C49.4078 40.5961 49.6517 41.5023 49.7856 42.4275C49.9646 43.8137 49.1904 44.7327 47.8034 44.907C46.8356 45.0382 45.8606 45.1111 44.8837 45.1255C40.2457 45.1466 35.6074 45.1354 30.9695 45.1354V45.149ZM46.207 41.7658C46.225 41.6183 46.2235 41.4691 46.2025 41.3221C44.7252 37.4948 42.6839 34.0355 39.53 31.3259C37.097 29.2355 34.3678 27.7312 31.1258 27.3232C27.39 26.8533 23.6883 26.9518 20.0369 27.9782C13.1289 29.9198 7.61718 33.742 3.84282 39.904C3.41337 40.6048 3.07248 41.3595 2.67756 42.1118C2.79759 42.1773 2.92282 42.2329 3.05195 42.2781C4.34432 42.5614 5.63309 42.3947 6.93648 42.3221C9.64517 42.1706 12.3613 42.1055 15.0746 42.0915C23.9517 42.0459 32.8288 42.0493 41.7059 42.007C43.1834 41.9992 44.6587 41.8522 46.2076 41.7658H46.207Z" fill="black"/>
<path id="Vector_2" d="M25.9072 0.148157C29.4807 0.0613215 32.4663 1.76291 34.7331 4.85539C35.2674 5.58451 35.9121 6.26144 36.3023 7.06113C37.1744 8.84855 37.8968 10.6847 37.4333 12.7709C36.9981 14.7299 36.4307 16.6162 35.1663 18.2219C32.9178 21.0742 30.0511 22.8376 26.3873 23.276C23.0894 23.6709 19.9537 23.1835 17.0259 21.6355C14.0104 20.0412 12.2948 17.4613 11.6719 14.1466C10.7344 9.15661 13.3511 4.68131 17.48 2.3019C19.9785 0.861612 22.6765 0.135691 25.9072 0.148157ZM33.7373 10.2861C33.9011 9.02815 33.3964 8.02353 32.6144 7.10806C32.3093 6.75078 32.0335 6.36751 31.7159 6.02207C30.5663 4.77172 29.2555 3.78254 27.5119 3.52076C25.0674 3.11718 22.5579 3.44536 20.3005 4.46389C17.4789 5.75839 15.374 7.73194 14.8891 11.0135C14.3234 14.8417 16.3036 18.2675 19.8255 19.3985C21.9358 20.0566 24.1642 20.2499 26.3568 19.9652C29.354 19.6229 32.8822 16.5492 33.3587 13.3944C33.5144 12.3625 33.6127 11.3218 33.7373 10.2851V10.2861Z" fill="black"/>
</g>
<defs>
<clipPath id="clip0_31_494">
<rect width="50" height="45.4248" fill="white"/>
</clipPath>
</defs>
</svg>
