<svg width="50" height="48" viewBox="0 0 50 48" fill="none" xmlns="http://www.w3.org/2000/svg">
<path id="Vector" d="M48.6674 19.8143C48.4749 19.6611 48.2747 19.518 48.0673 19.3856C47.9981 19.3395 47.9292 19.2928 47.8605 19.2473C39.8524 13.7964 33.1045 8.48634 27.2306 3.0135C26.446 2.28195 25.5706 1.50645 24.4759 0.572293C23.7842 -0.0182023 23.2207 -0.0479032 22.8695 0.03283C22.5265 0.110779 22.0471 0.369074 21.7018 1.15847C21.5535 1.55587 21.4726 1.97491 21.4623 2.39855L21.4433 2.62775C21.4314 2.80796 21.4364 2.98891 21.4586 3.16816C21.4749 3.30321 21.4804 3.43928 21.4751 3.5752C21.1698 7.69815 20.8548 11.8477 20.5395 15.9091C20.5193 16.1122 20.4865 16.3139 20.4413 16.5129L20.407 16.4752C20.1288 16.1727 19.889 15.9116 19.6295 15.6648C15.044 11.3095 10.4551 6.95776 5.86271 2.60951C4.96144 1.74061 3.77721 1.21908 2.52293 1.13868C1.71207 1.07218 1.08609 1.1031 0.663824 1.46594C0.317026 1.76412 0.14742 2.24173 0.0965852 3.06361C0.00894899 4.47721 -0.0191326 5.92697 0.012678 7.37275C0.191066 15.4739 0.506315 25.0496 1.48964 34.6481C1.91783 38.8258 2.7253 42.1222 4.0317 45.0218C4.15913 45.3002 4.22306 45.603 4.21885 45.9086C4.2017 46.3831 4.23036 47.0451 4.6782 47.3105C4.80155 47.3826 4.94242 47.4197 5.0855 47.4175C5.42778 47.3887 5.7573 47.2749 6.04356 47.0865L6.33547 46.9173C7.79904 46.1286 9.18735 45.2096 10.4833 44.1715C14.721 40.5524 17.7811 37.5455 20.4036 34.4219C20.5417 34.2574 20.6899 34.0978 20.8683 33.9079C20.8929 34.1915 20.9144 34.4272 20.944 34.6623C21.0783 35.7239 21.2135 36.7852 21.3495 37.8461C21.5287 39.2461 21.7068 40.6461 21.884 42.0467C21.9439 42.5228 22.0343 43.2429 23.0142 43.3688C23.0586 43.3737 23.1036 43.37 23.1465 43.3577C23.1893 43.345 23.2292 43.3242 23.2637 43.2958C23.307 43.2621 23.3524 43.2311 23.3997 43.203C23.6257 43.0944 23.8004 42.9026 23.8871 42.6688C24.1282 41.6811 24.9084 41.3183 25.8119 40.8982L25.9458 40.8364C32.7009 37.6794 39.0989 33.6193 45.5056 28.4243C46.5055 27.6106 47.4548 26.7377 48.3483 25.8103C48.8888 25.2499 49.3323 24.6051 49.6616 23.9017C50.3483 22.4191 49.9766 20.8914 48.6674 19.8143ZM43.1679 22.0393L43.112 22.0724C42.8554 22.2187 42.6074 22.3791 42.3692 22.5528C41.4414 23.2588 40.5161 23.9686 39.5935 24.6822C37.9353 25.9603 36.2207 27.2805 34.5101 28.5444C31.499 30.7643 28.6754 33.2239 26.0674 35.899C25.8684 36.1034 25.6589 36.3011 25.439 36.5024L25.1193 7.1479C30.571 12.7485 36.623 17.7419 43.1679 22.0393ZM18.0464 30.3619C16.3424 32.197 14.5582 34.0189 12.8329 35.7802L12.3028 36.3221C10.8887 37.7663 9.4361 39.2267 8.03019 40.6387C7.57527 41.0965 7.11963 41.5549 6.66324 42.014C6.28152 30.981 5.5998 19.7537 4.5828 7.74796C4.75976 7.92282 4.93715 8.097 5.1151 8.27043C6.08501 9.21387 7.05305 10.159 8.01922 11.106C10.4664 13.4998 12.9967 15.9753 15.5353 18.3596C16.7099 19.4133 17.9543 20.3878 19.2603 21.2765L19.8469 21.6959C20.0745 21.8352 20.2633 22.029 20.3956 22.2595C20.5279 22.4901 20.5996 22.7499 20.6041 23.0152L20.6134 23.1491C20.9 27.2882 20.9 27.2882 18.0471 30.3619H18.0464Z" fill="black"/>
</svg>
